<?xml version="1.0" encoding="utf-8"?>
<!-- Generator: Adobe Illustrator 22.1.0, SVG Export Plug-In . SVG Version: 6.00 Build 0)  -->
<svg version="1.1" id="Layer_1" xmlns="http://www.w3.org/2000/svg" xmlns:xlink="http://www.w3.org/1999/xlink" x="0px" y="0px"
	 width="512px" height="49.8px" viewBox="0 0 512 49.8" style="enable-background:new 0 0 512 49.8;" xml:space="preserve">
<style type="text/css">
	.st0{fill:#6169FC;}
</style>
<g>
	<g>
		<path class="st0" d="M503.3,32.4c-14.3,0-21-6.1-29.5-13.9C464.4,9.8,453.7,0,432.7,0s-31.8,9.8-41.2,18.5
			c-8.5,7.8-15.2,13.9-29.5,13.9s-21-6.1-29.5-13.9C323.1,9.8,312.4,0,291.3,0s-31.8,9.8-41.2,18.5c-8.5,7.8-15.2,13.9-29.5,13.9
			c-14.3,0-21-6.1-29.5-13.9C181.8,9.8,171,0,150,0s-31.7,9.8-41.2,18.5c-8.5,7.8-15.2,13.9-29.5,13.9s-21-6.1-29.5-13.9
			C40.4,9.8,29.7,0,8.7,0C3.9,0,0,3.9,0,8.7s3.9,8.7,8.7,8.7c14.3,0,21,6.1,29.5,13.9c9.4,8.7,20.2,18.5,41.2,18.5
			c21,0,31.7-9.8,41.2-18.5c8.5-7.8,15.2-13.9,29.5-13.9c14.3,0,21,6.1,29.5,13.9c9.4,8.7,20.2,18.5,41.2,18.5s31.7-9.8,41.2-18.5
			c8.5-7.8,15.2-13.9,29.5-13.9s21,6.1,29.5,13.9c9.4,8.7,20.2,18.5,41.2,18.5s31.8-9.8,41.2-18.5c8.5-7.8,15.2-13.9,29.5-13.9
			c14.3,0,21,6.1,29.5,13.9c9.4,8.7,20.2,18.5,41.2,18.5c4.8,0,8.7-3.9,8.7-8.7C512,36.3,508.1,32.4,503.3,32.4z"/>
	</g>
</g>
</svg>
