<?xml version="1.0" encoding="utf-8"?>
<!-- Generator: Adobe Illustrator 22.1.0, SVG Export Plug-In . SVG Version: 6.00 Build 0)  -->
<svg version="1.1" id="Layer_1" xmlns="http://www.w3.org/2000/svg" xmlns:xlink="http://www.w3.org/1999/xlink" x="0px" y="0px"
	 width="865.4px" height="49.9px" viewBox="0 0 865.4 49.9" style="enable-background:new 0 0 865.4 49.9;" xml:space="preserve">
<style type="text/css">
	.st0{fill:#4449B2;}
</style>
<path class="st0" d="M856.7,0.1c-21,0-31.7,9.8-41.1,18.5c-8.5,7.8-15.2,13.9-29.5,13.9s-21-6.1-29.5-13.9
	c-9.5-8.7-20.2-18.5-41.2-18.5s-31.8,9.8-41.1,18.5c-8.5,7.8-15.2,13.9-29.5,13.9s-21-6.1-29.5-13.9c-9.4-8.7-20.1-18.5-41.2-18.5
	c-21.1,0-31.8,9.8-41.2,18.5c-8.3,7.7-15,13.7-28.8,13.9c-0.3,0-0.6,0-0.8,0c-8.9,0-14.9-2.4-20.1-6c-3.2-2.2-6.1-4.9-9.3-7.8
	c-2.3-2.1-4.6-4.3-7.2-6.4c-8-6.5-18-12.2-34-12.2c-21,0-31.8,9.8-41.2,18.5c-8.5,7.8-15.2,13.9-29.5,13.9s-21-6.1-29.5-13.9
	C323.1,9.8,312.4,0,291.3,0s-31.8,9.8-41.2,18.5c-8.5,7.8-15.2,13.9-29.5,13.9s-21-6.1-29.5-13.9C181.8,9.8,171,0,150,0
	s-31.7,9.8-41.2,18.5c-8.5,7.8-15.2,13.9-29.5,13.9s-21-6.1-29.5-13.9C40.4,9.8,29.7,0,8.7,0C3.9,0,0,3.9,0,8.7s3.9,8.7,8.7,8.7
	c14.3,0,21,6.1,29.5,13.9c9.4,8.7,20.2,18.5,41.2,18.5s31.7-9.8,41.2-18.5c8.5-7.8,15.2-13.9,29.5-13.9s21,6.1,29.5,13.9
	c9.4,8.7,20.2,18.5,41.2,18.5S252.5,40,262,31.3c8.5-7.8,15.2-13.9,29.5-13.9s21,6.1,29.5,13.9c9.2,8.5,19.7,18,39.6,18.5
	c0.4,0.1,0.8,0.1,1.2,0.1c3.4,0,6.4-0.3,9.3-0.7c15.4-2.3,24.3-10.5,32.3-17.9C410.3,25,416,19.8,425.6,18c2.1-0.4,4.4-0.6,6.9-0.6
	c14.3,0,21,6.1,29.5,13.9c9.4,8.7,20.2,18.5,41.2,18.5S535,40,544.4,31.3c8.5-7.8,15.2-13.9,29.5-13.9s21,6.1,29.5,13.9
	c9.5,8.7,20.2,18.5,41.2,18.5s31.8-9.8,41.2-18.5c8.5-7.8,15.2-13.9,29.5-13.9s21,6.1,29.5,13.9C754.3,40,765,49.8,786,49.8
	s31.8-9.8,41.2-18.5c8.5-7.8,15.2-13.9,29.5-13.9c4.8,0,8.7-3.9,8.7-8.7S861.5,0.1,856.7,0.1z"/>
</svg>
