<?xml version="1.0" encoding="utf-8"?>
<!-- Generator: Adobe Illustrator 22.1.0, SVG Export Plug-In . SVG Version: 6.00 Build 0)  -->
<svg version="1.1" id="Layer_1" xmlns="http://www.w3.org/2000/svg" xmlns:xlink="http://www.w3.org/1999/xlink" x="0px" y="0px"
	 width="295px" height="512.6px" viewBox="0 0 295 512.6" style="enable-background:new 0 0 295 512.6;" xml:space="preserve">
<style type="text/css">
	.st0{fill:#3A3F99;}
</style>
<g>
	<g>
		<path class="st0" d="M262.6,503.6c0-14.3,6.1-21,13.9-29.5c8.7-9.4,18.5-20.1,18.5-41.1s-9.8-31.8-18.5-41.2
			c-7.8-8.5-13.9-15.2-13.9-29.5s6.1-21,13.9-29.5c8.7-9.4,18.5-20.1,18.5-41.2s-9.8-31.8-18.5-41.2c-7.8-8.5-13.9-15.2-13.9-29.5
			s6.1-21,13.9-29.5c8.7-9.3,18.5-20.1,18.5-41.1s-9.8-31.7-18.5-41.2c-7.8-8.5-13.9-15.2-13.9-29.5s6.1-21,13.9-29.5
			C285.2,40.7,295,30,295,9c0-4.8-3.9-8.7-8.7-8.7c-4.8,0-8.7,3.9-8.7,8.7c0,14.3-6.1,21-13.9,29.5c-8.7,9.4-18.5,20.2-18.5,41.2
			s9.8,31.7,18.5,41.2c7.8,8.5,13.9,15.2,13.9,29.5s-6.1,21-13.9,29.5c-8.7,9.4-18.5,20.2-18.5,41.2s9.8,31.7,18.5,41.2
			c7.8,8.5,13.9,15.2,13.9,29.5s-6.1,21-13.9,29.5c-8.7,9.4-18.5,20.2-18.5,41.2s9.8,31.8,18.5,41.2c7.8,8.5,13.9,15.2,13.9,29.5
			s-6.1,21-13.9,29.5c-8.7,9.4-18.5,20.2-18.5,41.2c0,4.8,3.9,8.7,8.7,8.7C258.7,512.3,262.6,508.4,262.6,503.6z"/>
	</g>
</g>
<g>
	<g>
		<path class="st0" d="M180.9,503.6c0-14.3,6.1-21,13.9-29.5c8.7-9.4,18.5-20.2,18.5-41.2s-9.8-31.8-18.5-41.2
			c-7.8-8.5-13.9-15.2-13.9-29.5s6.1-21,13.9-29.5c8.7-9.4,18.5-20.2,18.5-41.2s-9.8-31.8-18.5-41.2c-7.8-8.5-13.9-15.2-13.9-29.5
			s6.1-21,13.9-29.5c1-1.1,2-2.2,3-3.3c3.2-3.6,2.9-9.1-0.7-12.3s-9.1-2.9-12.3,0.7c-0.9,1-1.9,2.1-2.8,3.1
			c-8.7,9.4-18.5,20.2-18.5,41.2s9.8,31.7,18.5,41.2c7.8,8.5,13.9,15.2,13.9,29.5s-6.1,21-13.9,29.5c-8.7,9.4-18.5,20.2-18.5,41.2
			s9.8,31.8,18.5,41.2c7.8,8.5,13.9,15.2,13.9,29.5s-6.1,21-13.9,29.5c-8.7,9.4-18.5,20.2-18.5,41.2c0,4.8,3.9,8.7,8.7,8.7
			C177,512.3,180.9,508.4,180.9,503.6z"/>
	</g>
</g>
<g>
	<g>
		<path class="st0" d="M212,162.7c0.9-3.9,1.3-8,1.3-12.4c0-21-9.8-31.7-18.5-41.2c-7.8-8.5-13.9-15.2-13.9-29.5s6.1-21,13.9-29.5
			c8.7-9.4,18.5-20.2,18.5-41.2c0-4.8-3.9-8.7-8.7-8.7s-8.7,3.9-8.7,8.7c0,14.3-6.1,21-13.9,29.5c-8.7,9.4-18.5,20.2-18.5,41.2
			s9.8,31.7,18.5,41.2c7.8,8.5,13.9,15.2,13.9,29.5c0,3.1-0.3,5.9-0.9,8.6c-1,4.7,1.9,9.3,6.6,10.4
			C206.3,170.4,210.9,167.4,212,162.7z"/>
	</g>
</g>
<g>
	<g>
		<path class="st0" d="M17.4,503.6c0-14.3,6.1-21,13.9-29.5c8.7-9.4,18.5-20.2,18.5-41.2s-9.8-31.8-18.5-41.2
			c-7.8-8.5-13.9-15.2-13.9-29.5s6.1-21,13.9-29.5c8.7-9.4,18.5-20.2,18.5-41.2s-9.8-31.8-18.5-41.2c-7.8-8.5-13.9-15.2-13.9-29.5
			s6.1-21,13.9-29.5c8.7-9.4,18.5-20.2,18.5-41.2s-9.8-31.7-18.5-41.2c-7.8-8.5-13.9-15.2-13.9-29.5c0-4.8-3.9-8.7-8.7-8.7
			S0,74.6,0,79.4c0,21,9.8,31.7,18.5,41.2c7.8,8.5,13.9,15.2,13.9,29.5s-6.1,21-13.9,29.5C9.8,189,0,199.8,0,220.8
			s9.8,31.7,18.5,41.2c7.8,8.5,13.9,15.2,13.9,29.5s-6.1,21-13.9,29.5C9.8,330.4,0,341.2,0,362.2s9.8,31.8,18.5,41.2
			c7.8,8.5,13.9,15.2,13.9,29.5s-6.1,21-13.9,29.5C9.8,471.8,0,482.6,0,503.6c0,4.8,3.9,8.7,8.7,8.7S17.4,508.4,17.4,503.6z"/>
	</g>
</g>
<g>
	<g>
		<path class="st0" d="M23.6,59.3c2.2-3.2,4.9-6.1,7.7-9.2C40,40.7,49.8,29.9,49.8,8.9c0-4.8-3.9-8.7-8.7-8.7s-8.7,3.9-8.7,8.7
			c0,14.3-6.1,21-13.9,29.5c-3.1,3.3-6.2,6.8-9.1,10.9c-1.1,1.5-1.6,3.3-1.6,5c0,2.7,1.3,5.4,3.7,7.1C15.4,64.2,20.9,63.2,23.6,59.3
			z"/>
	</g>
</g>
<g>
	<g>
		<path class="st0" d="M99.1,503.6c0-14.3,6.1-21,13.9-29.5c8.7-9.4,18.5-20.2,18.5-41.2s-9.8-31.7-18.5-41.2
			c-3.2-3.5-8.7-3.8-12.3-0.5c-3.5,3.2-3.8,8.7-0.5,12.3c7.8,8.5,13.9,15.2,13.9,29.5s-6.1,21-13.9,29.5
			c-8.7,9.4-18.5,20.2-18.5,41.2c0,4.8,3.9,8.7,8.7,8.7C95.3,512.3,99.1,508.4,99.1,503.6z"/>
	</g>
</g>
<g>
	<g>
		<path class="st0" d="M94,382.4c4.6-1.2,7.4-5.9,6.2-10.6c-0.8-2.9-1.1-6.1-1.1-9.6c0-14.3,6.1-21,13.9-29.5
			c8.7-9.4,18.5-20.2,18.5-41.2s-9.8-31.8-18.5-41.2c-7.8-8.5-13.9-15.2-13.9-29.5s6.1-21,13.9-29.5c8.7-9.4,18.5-20.2,18.5-41.2
			s-9.8-31.7-18.5-41.2c-7.8-8.5-13.9-15.2-13.9-29.5s6.1-21,13.9-29.5c8.7-9.4,18.5-20.2,18.5-41.2c0-4.8-3.9-8.7-8.7-8.7
			s-8.7,3.9-8.7,8.7c0,14.3-6.1,21-13.9,29.5c-8.7,9.4-18.5,20.2-18.5,41.2s9.8,31.7,18.5,41.2c7.8,8.5,13.9,15.2,13.9,29.5
			s-6.1,21-13.9,29.5c-8.7,9.4-18.5,20.2-18.5,41.2s9.8,31.7,18.5,41.2c7.8,8.5,13.9,15.2,13.9,29.5s-6.1,21-13.9,29.5
			c-8.7,9.4-18.5,20.2-18.5,41.2c0,4.9,0.6,9.6,1.7,13.9C84.6,380.8,89.4,383.6,94,382.4z"/>
	</g>
</g>
</svg>
