<?xml version="1.0" encoding="utf-8"?>
<!-- Generator: Adobe Illustrator 22.1.0, SVG Export Plug-In . SVG Version: 6.00 Build 0)  -->
<svg version="1.1" id="Layer_1" xmlns="http://www.w3.org/2000/svg" xmlns:xlink="http://www.w3.org/1999/xlink" x="0px" y="0px"
	 width="512px" height="294.9px" viewBox="0 0 512 294.9" style="enable-background:new 0 0 512 294.9;" xml:space="preserve">
<style type="text/css">
	.st0{fill:#6169FC;}
</style>
<g>
	<g>
		<path class="st0" d="M503.3,32.4c-14.3,0-21-6.1-29.5-13.9C464.4,9.8,453.7,0,432.7,0s-31.8,9.8-41.2,18.5
			c-8.5,7.8-15.2,13.9-29.5,13.9s-21-6.1-29.5-13.9C323.1,9.8,312.4,0,291.3,0s-31.8,9.8-41.2,18.5c-8.5,7.8-15.2,13.9-29.5,13.9
			s-21-6.1-29.5-13.9C181.8,9.8,171,0,150,0s-31.7,9.8-41.2,18.5c-8.5,7.8-15.2,13.9-29.5,13.9s-21-6.1-29.5-13.9
			C40.4,9.8,29.7,0,8.7,0C3.9,0,0,3.9,0,8.7s3.9,8.7,8.7,8.7c14.3,0,21,6.1,29.5,13.9c9.4,8.7,20.2,18.5,41.2,18.5
			s31.7-9.8,41.2-18.5c8.5-7.8,15.2-13.9,29.5-13.9s21,6.1,29.5,13.9c9.4,8.7,20.2,18.5,41.2,18.5S252.5,40,262,31.3
			c8.5-7.8,15.2-13.9,29.5-13.9s21,6.1,29.5,13.9c9.4,8.7,20.2,18.5,41.2,18.5S394,40,403.4,31.3c8.5-7.8,15.2-13.9,29.5-13.9
			s21,6.1,29.5,13.9c9.4,8.7,20.2,18.5,41.2,18.5c4.8,0,8.7-3.9,8.7-8.7C512,36.3,508.1,32.4,503.3,32.4z"/>
	</g>
</g>
<g>
	<g>
		<path class="st0" d="M503.3,114.1c-14.3,0-21-6.1-29.5-13.9c-9.4-8.7-20.2-18.5-41.2-18.5s-31.8,9.8-41.2,18.5
			c-8.5,7.8-15.2,13.9-29.5,13.9s-21-6.1-29.5-13.9c-9.4-8.7-20.2-18.5-41.2-18.5s-31.8,9.8-41.2,18.5c-8.5,7.8-15.2,13.9-29.5,13.9
			s-21-6.1-29.5-13.9c-1.1-1-2.2-2-3.3-3c-3.6-3.2-9.1-2.9-12.3,0.7s-2.9,9.1,0.7,12.3c1,0.9,2.1,1.9,3.1,2.8
			c9.4,8.7,20.2,18.5,41.2,18.5s31.7-9.8,41.2-18.5c8.5-7.8,15.2-13.9,29.5-13.9s21,6.1,29.5,13.9c9.4,8.7,20.2,18.5,41.2,18.5
			s31.8-9.8,41.2-18.5c8.5-7.8,15.2-13.9,29.5-13.9s21,6.1,29.5,13.9c9.4,8.7,20.2,18.5,41.2,18.5c4.8,0,8.7-3.9,8.7-8.7
			C512,118,508.1,114.1,503.3,114.1z"/>
	</g>
</g>
<g>
	<g>
		<path class="st0" d="M162.4,83c-3.9-0.9-8-1.3-12.4-1.3c-21,0-31.7,9.8-41.2,18.5c-8.5,7.8-15.2,13.9-29.5,13.9s-21-6.1-29.5-13.9
			c-9.4-8.7-20.2-18.5-41.2-18.5c-4.8,0-8.7,3.9-8.7,8.7s3.9,8.7,8.7,8.7c14.3,0,21,6.1,29.5,13.9c9.4,8.7,20.2,18.5,41.2,18.5
			s31.7-9.8,41.2-18.5c8.5-7.8,15.2-13.9,29.5-13.9c3.1,0,5.9,0.3,8.6,0.9c4.7,1,9.3-1.9,10.4-6.6S167.1,84.1,162.4,83z"/>
	</g>
</g>
<g>
	<g>
		<path class="st0" d="M503.3,277.6c-14.3,0-21-6.1-29.5-13.9c-9.4-8.7-20.2-18.5-41.2-18.5s-31.8,9.8-41.2,18.5
			c-8.5,7.8-15.2,13.9-29.5,13.9s-21-6.1-29.5-13.9c-9.4-8.7-20.2-18.5-41.2-18.5s-31.8,9.8-41.2,18.5c-8.5,7.8-15.2,13.9-29.5,13.9
			s-21-6.1-29.5-13.9c-9.4-8.7-20.2-18.5-41.2-18.5s-31.7,9.8-41.2,18.5c-8.5,7.8-15.2,13.9-29.5,13.9c-4.8,0-8.7,3.9-8.7,8.7
			c0,4.8,3.9,8.7,8.7,8.7c21,0,31.7-9.8,41.2-18.5c8.5-7.8,15.2-13.9,29.5-13.9s21,6.1,29.5,13.9c9.4,8.7,20.2,18.5,41.2,18.5
			s31.7-9.8,41.2-18.5c8.5-7.8,15.2-13.9,29.5-13.9s21,6.1,29.5,13.9c9.4,8.7,20.2,18.5,41.2,18.5s31.8-9.8,41.2-18.5
			c8.5-7.8,15.2-13.9,29.5-13.9s21,6.1,29.5,13.9c9.4,8.7,20.2,18.5,41.2,18.5c4.8,0,8.7-3.9,8.7-8.7S508.1,277.6,503.3,277.6z"/>
	</g>
</g>
<g>
	<g>
		<path class="st0" d="M59,271.4c-3.2-2.2-6.1-4.9-9.2-7.7c-9.4-8.7-20.2-18.5-41.2-18.5c-4.8,0-8.7,3.9-8.7,8.7s3.9,8.7,8.7,8.7
			c14.3,0,21,6.1,29.5,13.9c3.3,3.1,6.8,6.2,10.9,9.1c1.5,1.1,3.3,1.6,5,1.6c2.7,0,5.4-1.3,7.1-3.7C63.9,279.6,62.9,274.1,59,271.4z
			"/>
	</g>
</g>
<g>
	<g>
		<path class="st0" d="M503.3,195.9c-14.3,0-21-6.1-29.5-13.9c-9.4-8.7-20.2-18.5-41.2-18.5s-31.7,9.8-41.2,18.5
			c-3.5,3.2-3.8,8.7-0.5,12.3c3.2,3.5,8.7,3.8,12.3,0.5c8.5-7.8,15.2-13.9,29.5-13.9s21,6.1,29.5,13.9c9.4,8.7,20.2,18.5,41.2,18.5
			c4.8,0,8.7-3.9,8.7-8.7C512,199.7,508.1,195.9,503.3,195.9z"/>
	</g>
</g>
<g>
	<g>
		<path class="st0" d="M382.1,201c-1.2-4.6-5.9-7.4-10.6-6.2c-2.9,0.8-6.1,1.1-9.6,1.1c-14.3,0-21-6.1-29.5-13.9
			c-9.4-8.7-20.2-18.5-41.2-18.5s-31.8,9.8-41.2,18.5c-8.5,7.8-15.2,13.9-29.5,13.9s-21-6.1-29.5-13.9c-9.4-8.7-20.2-18.5-41.2-18.5
			s-31.7,9.8-41.2,18.5c-8.5,7.8-15.2,13.9-29.5,13.9s-21-6.1-29.5-13.9c-9.4-8.7-20.2-18.5-41.2-18.5c-4.8,0-8.7,3.9-8.7,8.7
			s3.9,8.7,8.7,8.7c14.3,0,21,6.1,29.5,13.9c9.4,8.7,20.2,18.5,41.2,18.5s31.7-9.8,41.2-18.5c8.5-7.8,15.2-13.9,29.5-13.9
			s21,6.1,29.5,13.9c9.4,8.7,20.2,18.5,41.2,18.5s31.7-9.8,41.2-18.5c8.5-7.8,15.2-13.9,29.5-13.9s21,6.1,29.5,13.9
			c9.4,8.7,20.2,18.5,41.2,18.5c4.9,0,9.6-0.6,13.9-1.7C380.5,210.4,383.3,205.6,382.1,201z"/>
	</g>
</g>
</svg>
