<?xml version="1.0" encoding="utf-8"?>
<!-- Generator: Adobe Illustrator 22.1.0, SVG Export Plug-In . SVG Version: 6.00 Build 0)  -->
<svg version="1.1" id="Слой_1" xmlns="http://www.w3.org/2000/svg" xmlns:xlink="http://www.w3.org/1999/xlink" x="0px" y="0px"
	 width="384px" height="512px" viewBox="0 0 384 512" style="enable-background:new 0 0 384 512;" xml:space="preserve">
<path d="M369.9,97.9l-83.9-83.9c-9-9-21.2-14.1-33.9-14.1H48C21.5,0,0,21.5,0,48v416c0,26.5,21.5,48,48,48h288c26.5,0,48-21.5,48-48
	V131.9C384,119.2,378.9,106.9,369.9,97.9z M332.1,128H256V51.9L332.1,128z M48,464V48h160v104c0,13.3,10.7,24,24,24h104v288H48z
	 M149.7,348.9L116.9,320l32.8-28.9c3.6-3.2,4-8.8,0.8-12.4c-0.1-0.1-0.1-0.1-0.2-0.2l-17.4-18.6c-3.4-3.6-9-3.7-12.4-0.4l-57.7,54.1
	c-3.7,3.5-3.7,9.4,0,12.8l57.7,54.1c1.6,1.5,3.8,2.4,6,2.4c2.4,0,4.8-1,6.4-2.8l17.4-18.6c3.3-3.5,3.1-9.1-0.4-12.4
	C149.8,349,149.7,348.9,149.7,348.9L149.7,348.9z M234,221l-24.4-7.1c-4.7-1.4-9.5,1.3-10.9,6c0,0,0,0,0,0L144,408.1
	c-1.4,4.7,1.3,9.6,6,10.9l24.4,7.1c4.7,1.4,9.6-1.4,10.9-6L240,231.9C241.3,227.3,238.6,222.4,234,221L234,221z M321.2,313.6
	l-57.7-54.1c-3.5-3.3-9.1-3.2-12.4,0.4l-17.4,18.6c-3.3,3.5-3.1,9.1,0.4,12.4c0.1,0.1,0.1,0.1,0.2,0.2l32.8,28.9l-32.8,28.9
	c-3.6,3.2-4,8.8-0.8,12.4c0.1,0.1,0.1,0.1,0.2,0.2l17.4,18.6c3.3,3.5,8.9,3.7,12.4,0.4c0,0,0,0,0,0h0l57.7-54.1
	C324.9,322.9,324.9,317.1,321.2,313.6z"/>
</svg>
