<?xml version="1.0" encoding="utf-8"?>
<!-- Generator: Adobe Illustrator 22.1.0, SVG Export Plug-In . SVG Version: 6.00 Build 0)  -->
<svg version="1.1" id="Capa_1" xmlns="http://www.w3.org/2000/svg" xmlns:xlink="http://www.w3.org/1999/xlink" x="0px" y="0px"
	 width="561.9px" height="412.6px" viewBox="0 0 561.9 412.6" style="enable-background:new 0 0 561.9 412.6;" xml:space="preserve"
	>
<g>
	<path d="M355.7,0c9.1,0,18.3,3.5,25.2,10.4L551,180.6c3.4,3.3,6.1,7.2,7.9,11.4h2l-1.4,1.4c1.5,4,2.3,8.3,2.3,12.8
		c0,4.5-0.8,8.9-2.4,13l1.4,1.4h-2c-0.3,0.8-0.7,1.5-1.1,2.3c-1,2.2-2.3,4.2-3.9,6.1c-0.9,1.1-1.7,1.9-2.3,2.5L381,402
		c-6.6,6.7-15.8,10.6-25.3,10.6c-9.6,0-18.6-3.7-25.3-10.4c-6.8-6.8-10.5-15.7-10.5-25.2c0-9.5,3.7-18.5,10.5-25.2L440.2,242H35.7
		C16,242,0,226,0,206.3c0-19.7,16-35.7,35.7-35.7h404.4L330.4,60.9c-6.8-6.8-10.5-15.7-10.5-25.2c0-9.5,3.7-18.5,10.5-25.2
		C337.4,3.5,346.5,0,355.7,0z"/>
</g>
</svg>
