<?xml version="1.0" encoding="utf-8"?>
<!-- Generator: Adobe Illustrator 22.1.0, SVG Export Plug-In . SVG Version: 6.00 Build 0)  -->
<svg version="1.1" id="Capa_1" xmlns="http://www.w3.org/2000/svg" xmlns:xlink="http://www.w3.org/1999/xlink" x="0px" y="0px"
	 width="561.9px" height="412.6px" viewBox="0 0 561.9 412.6" style="enable-background:new 0 0 561.9 412.6;" xml:space="preserve"
	>
<g>
	<path d="M206.2,412.6c-9.1,0-18.3-3.5-25.2-10.4L10.9,232c-3.4-3.3-6.1-7.2-7.9-11.4h-2l1.4-1.4c-1.5-4-2.3-8.3-2.3-12.8
		c0-4.5,0.8-8.9,2.4-13L1,192h2c0.3-0.8,0.7-1.5,1.1-2.3c1-2.2,2.3-4.2,3.9-6.1c0.9-1.1,1.7-1.9,2.3-2.5L180.9,10.6
		C187.4,3.8,196.6,0,206.2,0c9.6,0,18.6,3.7,25.3,10.4c6.8,6.8,10.5,15.7,10.5,25.2c0,9.5-3.7,18.5-10.5,25.2L121.7,170.6h404.5
		c19.7,0,35.7,16,35.7,35.7c0,19.7-16,35.7-35.7,35.7H121.8l109.7,109.7c6.8,6.8,10.5,15.7,10.5,25.2c0,9.5-3.7,18.5-10.5,25.2
		C224.5,409.1,215.4,412.6,206.2,412.6z"/>
</g>
</svg>
