<?xml version="1.0" encoding="utf-8"?>
<!-- Generator: Adobe Illustrator 22.1.0, SVG Export Plug-In . SVG Version: 6.00 Build 0)  -->
<svg version="1.1" id="Слой_1" xmlns="http://www.w3.org/2000/svg" xmlns:xlink="http://www.w3.org/1999/xlink" x="0px" y="0px"
	 width="512px" height="512px" viewBox="0 0 512 512" style="enable-background:new 0 0 512 512;" xml:space="preserve">
<path d="M249.4,211.4c0,31.7-27.7,57.7-61.7,57.7c-34,0-61.7-26-61.7-57.7c0-32,27.7-57.7,61.7-57.7S249.4,179.4,249.4,211.4
	L249.4,211.4z M503.7,261.4c-18.3,22.6-53.1,50.3-106.3,72c56.3,191.7-137.4,222.3-134.3,124c0,1.7-0.3-52.9-0.3-93.4
	c-4.3-0.9-8.6-2-13.7-3.1c0,40.9-0.3,98.3-0.3,96.6c3.1,98.3-190.6,67.7-134.3-124c-53.1-21.7-88-49.4-106.3-72
	c-9.1-13.7,0.9-28.3,16-17.7c2,1.4,4.3,2.9,6.3,4.3V49.7C30.6,22.3,51.1,0,76.6,0h359.2c25.4,0,46,22.3,46,49.7V248l6-4.3
	C502.9,233.2,512.9,247.7,503.7,261.4L503.7,261.4z M457.2,72.3c0-32.9-10.6-45.7-40.9-45.7H98.6C66.9,26.6,58,37.4,58,72.3v192.3
	c67.7,35.4,125.7,29.1,157.4,28c13.4-0.3,22,2.3,27.1,7.7c1.7,1.7,10,9.4,20.3,17.1c1.1-15.7,10-25.7,33.7-24.9
	c32.3,1.4,91.7,7.7,160.6-29.7L457.2,72.3L457.2,72.3z M331.1,153.7c-34,0-61.7,25.7-61.7,57.7c0,31.7,27.7,57.7,61.7,57.7
	c34.3,0,61.7-26,61.7-57.7C392.9,179.4,365.4,153.7,331.1,153.7L331.1,153.7z"/>
</svg>
