<?xml version="1.0" encoding="utf-8"?>
<!-- Generator: Adobe Illustrator 22.1.0, SVG Export Plug-In . SVG Version: 6.00 Build 0)  -->
<svg version="1.1" id="Слой_1" xmlns="http://www.w3.org/2000/svg" xmlns:xlink="http://www.w3.org/1999/xlink" x="0px" y="0px"
	 width="384px" height="512px" viewBox="0 0 384 512" style="enable-background:new 0 0 384 512;" xml:space="preserve">
<path d="M136.9,328c-1,0.3-109.2,35.7-115.8,35.7c-15.2-0.9-18.5-16.2-19.9-31.2c-1.5-14.2-1.4-29.8,0.3-46.8
	c1.9-18.8,5.5-45.1,24.2-44c4.8,0,67.1,25.9,112.7,44.4C155.5,292.9,157,321.9,136.9,328z M194.8,214.1
	c1.8,38.2-25.5,48.5-47.2,14.3L41.3,60.4C39.8,53.8,41.6,48,46.6,43C62.2,26.5,146,3.2,168.1,8.9c7.5,1.9,12.1,6.1,13.8,12.6
	C183.2,29.8,193.4,188.9,194.8,214.1L194.8,214.1z M193.4,378.9c0,4.6,0.2,116.4-1.7,121.5c-2.3,6-7,9.7-14.3,11.2
	c-10.1,1.7-27.1-1.9-51-10.7c-22-8.1-56.7-21.5-49.3-42.5c2.8-6.9,51.4-62.8,77.3-93.6C166.4,349.6,194.2,359.3,193.4,378.9z
	 M373.6,261.1c-5.6,3.7-110.8,28.2-118.1,30.6l0.3-0.6c-18.1,4.7-35.4-18.5-23.3-34.6c3.7-3.7,65.9-92.4,72.8-97
	c5.2-3.6,11.3-3.8,18.3-0.6c18.4,8.8,55.1,63.1,57.4,84.6C380.9,246.4,382.2,255.2,373.6,261.1z M383.7,391.8
	c-2.7,20.6-44.5,73.4-63.8,81c-6.9,2.6-12.9,2-17.7-2c-5-3.5-61.8-97.1-64.9-102.3c-10.9-16.2,6.8-39.8,25.6-33.2
	c0,0,110.5,35.7,114.7,39.4C382.8,378.8,384.8,384.5,383.7,391.8z"/>
</svg>
